Coordinates
version=1
nRows=15
nColumns=42
inDegrees=yes

Units are S.I. units (second, meters, Newtons, ...)
If the header above contains a line with 'inDegrees', this indicates whether rotational values are in degrees (yes) or radians (no).

endheader
time	pelvis_tilt	pelvis_list	pelvis_rotation	pelvis_tx	pelvis_ty	pelvis_tz	hip_flexion_r	hip_adduction_r	hip_rotation_r	knee_angle_r	knee_angle_r_beta	ankle_angle_r	subtalar_angle_r	mtp_angle_r	hip_flexion_l	hip_adduction_l	hip_rotation_l	knee_angle_l	knee_angle_l_beta	ankle_angle_l	subtalar_angle_l	mtp_angle_l	lumbar_extension	lumbar_bending	lumbar_rotation	sh_tx_r	sh_ty_r	sh_tz_r	sh_plane_elev_r	sh_elev_r	sh_axial_rot_r	elbow_flex_r	pro_sup_r	sh_tx_l	sh_ty_l	sh_tz_l	sh_plane_elev_l	sh_elev_l	sh_axial_rot_l	elbow_flex_l	pro_sup_l
      0.00000000	     -5.71323970	     -0.24437291	      1.21200557	      0.26861069	      0.93020143	     -0.07398943	      2.90610944	     -5.07803107	     -2.01393386	      7.39130410	      0.12900259	     -1.57634379	    -17.97985201	     -5.15934218	      7.52242554	     -2.98537489	     -4.56778280	      8.41693002	      0.14690314	      8.72102911	     -7.09816430	     -5.15934218	      0.23731296	      0.68219784	     -5.60410479	      0.00751345	     -0.01706851	     -0.00536132	      5.07790525	      6.48417200	      2.24441440	     25.26406778	     81.16192955	      0.00285437	     -0.01718832	     -0.00529374	     15.83894926	      7.59240385	     -4.90270362	     28.63262091	     70.44057023
      0.01666670	     -6.99717263	     -0.10272057	      1.64698556	      0.26988015	      0.92887957	     -0.07480031	      4.01775594	     -5.14208833	     -1.68199645	      6.90881839	      0.12058163	      2.39903256	    -14.42297647	     -6.62311429	      9.24794530	     -2.49385439	     -5.03312064	      7.89928914	      0.13786860	      8.65022872	     -4.73158074	     -6.62311429	      2.63247704	      0.72121342	     -6.80990969	      0.00941958	     -0.01595898	     -0.00558219	     -0.14152486	      5.32646440	      2.55045997	     24.97515011	     81.91205361	      0.00508489	     -0.01667232	     -0.00507893	      1.59193193	      5.07999652	     -2.72497835	     30.85439475	     76.74755610
      0.03333330	     -7.30835674	      0.46573097	      1.92385339	      0.26991197	      0.92292884	     -0.07462391	      3.97192506	     -5.93972570	     -2.25566200	      6.34399270	      0.11072356	      3.57126836	    -13.73810265	     -6.70224463	      9.45225641	     -1.98760348	     -5.87608866	      7.55209073	      0.13180885	      8.52208991	     -3.67889387	     -6.70224463	      3.06358798	     -0.05568224	     -7.26896348	      0.00956091	     -0.01542770	     -0.00540094	      0.01603729	      4.92587666	      1.20224094	     25.83028759	     80.32415813	      0.00284355	     -0.01625470	     -0.00493214	      2.83636297	      5.68277447	     -4.12707043	     31.56596027	     75.36384871
      0.05000000	     -7.01325476	      0.86868995	      2.21978672	      0.26950705	      0.92452566	     -0.07441873	      3.50289401	     -6.46150221	     -2.20224414	      6.31674500	      0.11024800	      4.28817552	    -14.00561597	     -6.75487780	      8.82967626	     -1.49020697	     -5.43259098	      7.00879653	      0.12232658	      8.12256276	     -4.02440486	     -6.75487780	      2.75451538	     -0.64629923	     -7.57322901	      0.01067517	     -0.01591983	     -0.00539571	      0.24008522	      4.72340219	      1.52605012	     26.44597629	     78.84883367	      0.00167731	     -0.01616258	     -0.00465710	      4.01237929	      6.41120343	     -4.46385862	     32.10622831	     73.91495802
      0.06666670	     -6.68404510	      1.02770052	      2.35205822	      0.26971564	      0.92583015	     -0.07455964	      2.97519611	     -6.64802027	     -2.20010795	      6.07304561	      0.10599464	      4.77154063	    -13.96805515	     -6.80643401	      8.17336749	     -1.26614171	     -4.97299891	      6.37755433	      0.11130932	      8.05465892	     -3.99458203	     -6.80643401	      2.40908718	     -0.79911595	     -7.83132321	      0.01232566	     -0.01600380	     -0.00524006	      0.57624456	      4.66281322	      2.19620543	     27.10722244	     77.98392519	      0.00214132	     -0.01616588	     -0.00450359	      5.05398488	      6.93088692	     -4.65605528	     32.65552281	     72.62373768
      0.08333330	     -6.45394877	      1.15522311	      2.42261508	      0.26927123	      0.92644993	     -0.07447956	      2.83367157	     -6.77722400	     -2.28461554	      6.35677939	      0.11094673	      5.25659423	    -13.90521418	     -6.83212668	      7.96910083	     -1.07840129	     -4.46419791	      6.47152749	      0.11294946	      8.13782431	     -4.43641555	     -6.83212668	      2.06909024	     -0.91908522	     -7.43019914	      0.01303198	     -0.01379805	     -0.00519790	      2.19616069	      5.04148440	      2.15614274	     27.97229985	     76.83010653	      0.00525010	     -0.01362092	     -0.00482480	      7.21583609	      7.70729683	     -5.08926420	     33.14272643	     71.22741233
      0.10000000	     -6.09569649	      1.29497847	      2.50869823	      0.27393065	      0.92779773	     -0.07913628	      2.04224883	     -6.98981841	     -2.44860041	      5.94521330	      0.10376355	      4.97677573	    -14.25710206	     -6.84542226	      7.26801120	     -0.78366504	     -4.04334640	      6.09200842	      0.10632560	      7.98797726	     -4.72686188	     -6.84542226	      2.34427540	     -0.98252485	     -7.62242922	      0.01755091	     -0.01636967	     -0.00493781	      2.03429354	      4.94449276	      2.15422400	     27.81594766	     76.67464611	      0.00822565	     -0.01631583	     -0.00431974	      7.00776302	      7.59271745	     -5.52191513	     33.02275195	     70.78787154
      0.11666670	     -5.83437494	      1.34516812	      2.64656825	      0.27370405	      0.92821039	     -0.07891722	      1.55808073	     -7.07838925	     -2.76595407	      5.86282283	      0.10232556	      4.87413245	    -14.30546392	     -6.92166063	      6.87979260	     -0.65496403	     -3.60237803	      6.10878509	      0.10661841	      7.85587717	     -5.51810874	     -6.92166063	      2.30901509	     -1.02586937	     -7.77940054	      0.01967037	     -0.01648942	     -0.00480124	      3.37118885	      5.18886454	      1.50609793	     28.20008543	     74.67983576	      0.01016686	     -0.01631902	     -0.00437682	      8.89065490	      8.04301522	     -6.82510271	     33.37767783	     68.58109084
      0.13333330	     -5.63084335	      1.38162505	      2.79703407	      0.27359644	      0.92599935	     -0.07877446	      1.18795221	     -7.13750141	     -2.88753966	      5.83503225	      0.10184052	      4.76253839	    -14.58277491	     -7.00378293	      6.60479309	     -0.54530355	     -3.15969612	      6.14556517	      0.10726035	      7.70426766	     -6.13690077	     -7.00378293	      2.30795358	     -1.02976621	     -8.13583338	      0.02214387	     -0.01650994	     -0.00480561	      4.30358672	      5.37511367	      1.35298061	     28.82044673	     73.63479426	      0.01217882	     -0.01637263	     -0.00428758	     10.04016224	      8.40772341	     -7.91315610	     33.90229297	     66.75585512
      0.15000000	     -5.45858273	      1.36568781	      3.04127248	      0.27338532	      0.92650439	     -0.07865357	      0.83070881	     -7.10875145	     -3.16932360	      5.73518794	      0.10009791	      4.62238768	    -14.70083001	     -7.01050414	      6.41547505	     -0.54664508	     -2.77061834	      6.19872995	      0.10818825	      7.45720108	     -6.71335351	     -7.01050414	      2.23632329	     -1.01597230	     -8.52149983	      0.02335156	     -0.01648748	     -0.00475146	      5.70100802	      5.56713958	      0.67205769	     29.23283495	     73.23145161	      0.01376728	     -0.01638229	     -0.00436134	     12.11832000	      8.96775060	     -8.66084238	     34.45815284	     65.62143173
      0.16666670	     -5.35954967	      1.32993473	      3.19577923	      0.27357270	      0.93027797	     -0.07864532	      0.54987576	     -7.03179267	     -3.27495089	      5.52903776	      0.09649991	      4.44409213	    -14.84547323	     -7.01500226	      6.24266374	     -0.58909535	     -2.66855322	      6.09963806	      0.10645877	      7.21104874	     -6.88591476	     -7.01500226	      2.32544907	     -1.01220695	     -9.02162557	      0.02538359	     -0.01650592	     -0.00489131	      6.99856724	      5.72907913	      0.65251085	     29.31395350	     73.06874038	      0.01579847	     -0.01623194	     -0.00447201	     13.79862402	      9.47861789	     -8.85920841	     34.38615178	     65.03626932
      0.18333330	     -5.35134031	      1.32191111	      3.34538748	      0.27748577	      0.93009489	     -0.08329071	      0.38236860	     -7.09565495	     -3.38059459	      5.51086891	      0.09618281	      4.32746314	    -14.84312707	     -7.01574344	      6.15230843	     -0.55760900	     -2.70911478	      6.08635155	      0.10622687	      7.13400242	     -6.91943075	     -7.01574344	      2.60531183	     -0.99453850	     -9.22480692	      0.02548588	     -0.01647075	     -0.00471417	      6.95092431	      5.79722349	      0.61705182	     29.35565644	     73.06207629	      0.01869396	     -0.01625409	     -0.00467727	     13.87364288	      9.34323172	     -8.87166674	     34.56889605	     65.00670143
      0.20000000	     -5.32740012	      1.22891233	      3.64774672	      0.27349371	      0.92718090	     -0.07881669	      0.09590686	     -6.92056671	     -3.87033010	      5.01022762	      0.08744497	      3.86486446	    -15.20065928	     -7.09560991	      6.07656584	     -0.61979612	     -2.14200873	      5.77210422	      0.10074222	      6.88807241	     -7.10434924	     -7.09560991	      2.39972739	     -0.90866112	    -10.34583277	      0.02768933	     -0.01633106	     -0.00488813	      8.44871500	      5.79068862	     -0.56266575	     29.60268955	     71.84919886	      0.01682489	     -0.01629762	     -0.00471475	     16.59356140	      9.98053231	    -11.50054594	     35.30047370	     62.97029820
      0.21666670	     -5.20221600	      1.14675710	      3.87968769	      0.27329284	      0.92752637	     -0.07899139	     -0.15306293	     -6.77347706	     -4.21919141	      4.80449401	      0.08385424	      3.67525426	    -15.34407761	     -7.25186260	      5.93722192	     -0.69995672	     -1.64522321	      5.51666854	      0.09628403	      6.57963319	     -7.33439112	     -7.25186260	      2.17359944	     -0.77628873	    -10.34170669	      0.02793048	     -0.01632313	     -0.00488911	      5.54599723	      5.63594887	      1.18987206	     30.54132653	     73.04277906	      0.01731620	     -0.01623016	     -0.00501552	     21.19365669	     10.80802873	    -13.41623905	     35.24436361	     57.17535847
      0.23333330	     -5.30590282	      1.08061510	      3.99061952	      0.26945104	      0.92797664	     -0.08333049	      0.02624560	     -6.74629438	     -4.52815076	      4.73804118	      0.08269442	      3.54507157	    -15.47205862	     -7.25289344	      6.10071288	     -0.69692290	     -1.45012454	      5.28120120	      0.09217435	      6.53084101	     -7.19599944	     -7.25289344	      2.29301149	     -0.62794905	    -10.52997339	      0.02911040	     -0.01625783	     -0.00493055	      5.54020517	      5.77361306	      1.14920526	     30.61492004	     73.05705896	      0.01993570	     -0.01615333	     -0.00512179	     21.33522953	     10.83406128	    -13.38818115	     35.46482983	     57.17779877
